<?xml version="1.0" encoding="UTF-8" standalone="no"?>
<!-- Created with Inkscape (http://www.inkscape.org/) -->

<svg
   xmlns:dc="http://purl.org/dc/elements/1.1/"
   xmlns:cc="http://creativecommons.org/ns#"
   xmlns:rdf="http://www.w3.org/1999/02/22-rdf-syntax-ns#"
   xmlns:svg="http://www.w3.org/2000/svg"
   xmlns="http://www.w3.org/2000/svg"
   xmlns:xlink="http://www.w3.org/1999/xlink"
   xmlns:sodipodi="http://sodipodi.sourceforge.net/DTD/sodipodi-0.dtd"
   xmlns:inkscape="http://www.inkscape.org/namespaces/inkscape"
   width="485"
   height="485"
   id="svg2"
   version="1.1"
   inkscape:version="0.48.4 r9939"
   sodipodi:docname="geofix.svg"
   inkscape:export-filename="/home/dmpop/geofix.png"
   inkscape:export-xdpi="90"
   inkscape:export-ydpi="90">
  <defs
     id="defs4" />
  <sodipodi:namedview
     id="base"
     pagecolor="#ffffff"
     bordercolor="#666666"
     borderopacity="1.0"
     inkscape:pageopacity="1"
     inkscape:pageshadow="2"
     inkscape:zoom="0.49497475"
     inkscape:cx="133.12107"
     inkscape:cy="179.88595"
     inkscape:document-units="px"
     inkscape:current-layer="g3128"
     showgrid="false"
     fit-margin-top="0"
     fit-margin-left="0"
     fit-margin-right="0"
     fit-margin-bottom="0"
     inkscape:window-width="1280"
     inkscape:window-height="969"
     inkscape:window-x="-2"
     inkscape:window-y="-3"
     inkscape:window-maximized="1" />
  <metadata
     id="metadata7">
    <rdf:RDF>
      <cc:Work
         rdf:about="">
        <dc:format>image/svg+xml</dc:format>
        <dc:type
           rdf:resource="http://purl.org/dc/dcmitype/StillImage" />
        <dc:title></dc:title>
      </cc:Work>
    </rdf:RDF>
  </metadata>
  <g
     inkscape:label="Layer 1"
     inkscape:groupmode="layer"
     id="layer1"
     transform="translate(-133.02858,-227.24812)">
    <g
       id="g3128"
       transform="translate(74.285723,74.689798)">
      <text
         sodipodi:linespacing="125%"
         id="text2985"
         y="483.08026"
         x="145.83862"
         style="font-size:607.04779053px;font-style:normal;font-weight:normal;line-height:125%;letter-spacing:0px;word-spacing:0px;fill:#784421;fill-opacity:1;stroke:none;font-family:Sans"
         xml:space="preserve"><tspan
           style="font-size:607.04779053px;font-style:normal;font-variant:normal;font-weight:normal;font-stretch:normal;text-align:start;line-height:125%;writing-mode:lr-tb;text-anchor:start;fill:#784421;font-family:Arapey;-inkscape-font-specification:Arapey"
           y="483.08026"
           x="145.83862"
           id="tspan2987"
           sodipodi:role="line">g</tspan></text>
      <g
         transform="matrix(0.26069858,0,0,0.26069858,417.40194,251.25681)"
         id="g3093">
        <g
           style="fill:#a4c639"
           id="g3062">
          <use
             height="1"
             width="1"
             y="0"
             x="0"
             style="stroke:#ffffff;stroke-width:14.39999962"
             xlink:href="#b"
             id="use3064" />
          <use
             height="1"
             width="1"
             y="0"
             x="0"
             xlink:href="#a"
             transform="scale(-1,1)"
             id="use3066" />
          <g
             style="stroke:#ffffff;stroke-width:7.19999981"
             id="a">
            <rect
               rx="6.5"
               transform="matrix(0.87461971,0.48480962,-0.48480962,0.87461971,0,0)"
               height="86"
               width="13"
               y="-86"
               x="14"
               id="rect3069" />
            <rect
               id="c"
               rx="24"
               height="133"
               width="48"
               y="41"
               x="-143" />
            <use
               height="1"
               width="1"
               y="97"
               x="85"
               xlink:href="#c"
               id="use3072" />
          </g>
          <g
             id="b">
            <ellipse
               d="m 91,41 c 0,46.391919 -40.742088,84 -91,84 -50.257912,0 -91,-37.608081 -91,-84 0,-46.391919 40.742088,-84 91,-84 50.257912,0 91,37.608081 91,84 z"
               sodipodi:ry="84"
               sodipodi:rx="91"
               sodipodi:cy="41"
               sodipodi:cx="0"
               cx="0"
               cy="41"
               rx="91"
               ry="84"
               id="ellipse3075" />
            <rect
               rx="22"
               height="182"
               width="182"
               y="20"
               x="-91"
               id="rect3077" />
          </g>
        </g>
        <g
           style="fill:#ffffff;stroke:#ffffff;stroke-width:7.19999981"
           id="g3079">
          <path
             inkscape:connector-curvature="0"
             d="M -95,44.5 H 95"
             id="path3081" />
          <circle
             d="m -38,0 c 0,2.209139 -1.790861,4 -4,4 -2.209139,0 -4,-1.790861 -4,-4 0,-2.209139 1.790861,-4 4,-4 2.209139,0 4,1.790861 4,4 z"
             sodipodi:ry="4"
             sodipodi:rx="4"
             sodipodi:cy="0"
             sodipodi:cx="-42"
             cy="0"
             cx="-42"
             r="4"
             id="circle3083" />
          <circle
             d="m 46,0 c 0,2.209139 -1.790861,4 -4,4 -2.209139,0 -4,-1.790861 -4,-4 0,-2.209139 1.790861,-4 4,-4 2.209139,0 4,1.790861 4,4 z"
             sodipodi:ry="4"
             sodipodi:rx="4"
             sodipodi:cy="0"
             sodipodi:cx="42"
             cy="0"
             cx="42"
             r="4"
             id="circle3085" />
        </g>
      </g>
    </g>
  </g>
</svg>
